{
  "source": "C:\\Users\\Peter\\Desktop\\stuff\\MIUN\\quantitative_research\\video_compression\\videos\\BVI-HD\\BVI-HD_CDVL_videos\\ORIG\\Bookcase_1920x1080_60fps.mp4",
  "output": "C:\\Users\\Peter\\Desktop\\stuff\\MIUN\\quantitative_research\\video_compression\\compressed_videos\\BVI-HD\\h264\\2\\Bookcase_1920x1080_60fps_h264.mp4",
  "codec": "h264",
  "ok": "Input #0, mov,mp4,m4a,3gp,3g2,mj2, from 'C:\\Users\\Peter\\Desktop\\stuff\\MIUN\\quantitative_research\\video_compression\\videos\\BVI-HD\\BVI-HD_CDVL_videos\\ORIG\\Bookcase_1920x1080_60fps.mp4':\n  Metadata:\n    major_brand     : isom\n    minor_version   : 512\n    compatible_brands: isomiso2avc1mp41\n    encoder         : Lavf54.28.101\n  Duration: 00:00:05.00, start: 0.000000, bitrate: 336321 kb/s\n  Stream #0:0[0x1](und): Video: h264 (High 4:4:4 Predictive) (avc1 / 0x31637661), yuv420p(progressive), 1920x1080, 336316 kb/s, 60 fps, 60 tbr, 60 tbn (default)\n    Metadata:\n      handler_name    : VideoHandler\n      vendor_id       : [0][0][0][0]\n[out#0/mp4 @ 0000012cd39c18c0] Codec AVOption b:a (set bitrate (in bits/s)) has not been used for any stream. The most likely reason is either wrong type (e.g. a video option with no video streams) or that it is a private option of some decoder which was not actually used for any stream.\nStream mapping:\n  Stream #0:0 -> #0:0 (h264 (native) -> h264 (libx264))\nPress [q] to stop, [?] for help\n[libx264 @ 0000012cd39bcb80] using cpu capabilities: MMX2 SSE2Fast SSSE3 SSE4.2 AVX FMA3 BMI2 AVX2\n[libx264 @ 0000012cd39bcb80] profile High, level 5.0, 4:2:0, 8-bit\n[libx264 @ 0000012cd39bcb80] 264 - core 165 r3222 b35605a - H.264/MPEG-4 AVC codec - Copyleft 2003-2025 - http://www.videolan.org/x264.html - options: cabac=1 ref=5 deblock=1:0:0 analyse=0x3:0x113 me=hex subme=8 psy=1 psy_rd=1.00:0.00 mixed_ref=1 me_range=16 chroma_me=1 trellis=2 8x8dct=1 cqm=0 deadzone=21,11 fast_pskip=1 chroma_qp_offset=-2 threads=18 lookahead_threads=3 sliced_threads=0 nr=0 decimate=1 interlaced=0 bluray_compat=0 constrained_intra=0 bframes=3 b_pyramid=2 b_adapt=1 b_bias=0 direct=3 weightb=1 open_gop=0 weightp=2 keyint=250 keyint_min=25 scenecut=40 intra_refresh=0 rc_lookahead=50 rc=cbr mbtree=1 bitrate=2000 ratetol=1.0 qcomp=0.60 qpmin=0 qpmax=69 qpstep=4 vbv_maxrate=2000 vbv_bufsize=2000 nal_hrd=none filler=0 ip_ratio=1.40 aq=1:1.00\nOutput #0, mp4, to 'C:\\Users\\Peter\\Desktop\\stuff\\MIUN\\quantitative_research\\video_compression\\compressed_videos\\BVI-HD\\h264\\2\\Bookcase_1920x1080_60fps_h264.mp4':\n  Metadata:\n    major_brand     : isom\n    minor_version   : 512\n    compatible_brands: isomiso2avc1mp41\n    encoder         : Lavf62.3.100\n  Stream #0:0(und): Video: h264 (avc1 / 0x31637661), yuv420p(tv, progressive), 1920x1080, q=2-31, 2000 kb/s, 60 fps, 15360 tbn (default)\n    Metadata:\n      encoder         : Lavc62.11.100 libx264\n      handler_name    : VideoHandler\n      vendor_id       : [0][0][0][0]\n    Side data:\n      cpb: bitrate max/min/avg: 2000000/0/2000000 buffer size: 2000000 vbv_delay: N/A\nframe=    0 fps=0.0 q=0.0 size=       0KiB time=N/A bitrate=N/A speed=N/A elapsed=0:00:00.51    \nframe=    0 fps=0.0 q=0.0 size=       0KiB time=N/A bitrate=N/A speed=N/A elapsed=0:00:01.06    \nframe=    0 fps=0.0 q=0.0 size=       0KiB time=N/A bitrate=N/A speed=N/A elapsed=0:00:01.60    \nframe=    8 fps=3.7 q=40.0 size=       0KiB time=00:00:00.03 bitrate=  11.5kbits/s speed=0.0156x elapsed=0:00:02.13    \nframe=   31 fps= 11 q=40.0 size=       0KiB time=00:00:00.41 bitrate=   0.9kbits/s speed=0.148x elapsed=0:00:02.82    \nframe=   54 fps= 16 q=43.0 size=       0KiB time=00:00:00.86 bitrate=   0.4kbits/s speed=0.253x elapsed=0:00:03.43    \nframe=   79 fps= 20 q=40.0 size=       0KiB time=00:00:01.26 bitrate=   0.3kbits/s speed=0.315x elapsed=0:00:04.02    \nframe=  102 fps= 22 q=39.0 size=     256KiB time=00:00:01.60 bitrate=1311.0kbits/s speed=0.341x elapsed=0:00:04.69    \nframe=  126 fps= 24 q=39.0 size=     256KiB time=00:00:02.00 bitrate=1048.8kbits/s speed=0.378x elapsed=0:00:05.29    \nframe=  151 fps= 26 q=38.0 size=     256KiB time=00:00:02.48 bitrate= 844.6kbits/s speed=0.423x elapsed=0:00:05.86    \nframe=  175 fps= 27 q=39.0 size=     256KiB time=00:00:02.86 bitrate= 731.7kbits/s speed=0.443x elapsed=0:00:06.46    \nframe=  200 fps= 29 q=40.0 size=     512KiB time=00:00:03.25 bitrate=1290.7kbits/s speed=0.464x elapsed=0:00:07.00    \nframe=  226 fps= 30 q=40.0 size=     512KiB time=00:00:03.68 bitrate=1138.8kbits/s speed=0.486x elapsed=0:00:07.58    \nframe=  250 fps= 31 q=40.0 size=     768KiB time=00:00:04.13 bitrate=1522.2kbits/s speed=0.507x elapsed=0:00:08.14    \nframe=  278 fps= 32 q=43.0 size=     768KiB time=00:00:04.60 bitrate=1367.8kbits/s speed=0.53x elapsed=0:00:08.67    \n[mp4 @ 0000012cd39cd700] Starting second pass: moving the moov atom to the beginning of the file\n[out#0/mp4 @ 0000012cd39c18c0] video:1041KiB audio:0KiB subtitle:0KiB other streams:0KiB global headers:0KiB muxing overhead: 0.399085%\nframe=  300 fps= 33 q=-1.0 Lsize=    1045KiB time=00:00:04.96 bitrate=1724.2kbits/s speed=0.542x elapsed=0:00:09.16    \n[libx264 @ 0000012cd39bcb80] frame I:2     Avg QP:35.83  size: 30960\n[libx264 @ 0000012cd39bcb80] frame P:93    Avg QP:38.47  size:  8080\n[libx264 @ 0000012cd39bcb80] frame B:205   Avg QP:38.31  size:  1230\n[libx264 @ 0000012cd39bcb80] consecutive B-frames:  2.3% 11.3% 25.0% 61.3%\n[libx264 @ 0000012cd39bcb80] mb I  I16..4: 42.9% 55.5%  1.6%\n[libx264 @ 0000012cd39bcb80] mb P  I16..4: 10.0%  8.7%  0.0%  P16..4: 19.9%  1.3%  1.6%  0.0%  0.0%    skip:58.5%\n[libx264 @ 0000012cd39bcb80] mb B  I16..4:  0.1%  0.1%  0.0%  B16..8: 16.8%  0.1%  0.0%  direct: 0.0%  skip:82.8%  L0:28.0% L1:71.9% BI: 0.1%\n[libx264 @ 0000012cd39bcb80] 8x8 transform intra:47.3% inter:94.1%\n[libx264 @ 0000012cd39bcb80] direct mvs  spatial:95.6% temporal:4.4%\n[libx264 @ 0000012cd39bcb80] coded y,uvDC,uvAC intra: 12.6% 31.0% 2.5% inter: 1.3% 1.4% 0.0%\n[libx264 @ 0000012cd39bcb80] i16 v,h,dc,p: 56% 25%  4% 15%\n[libx264 @ 0000012cd39bcb80] i8 v,h,dc,ddl,ddr,vr,hd,vl,hu: 34% 18% 24%  2%  3%  4%  5%  5%  3%\n[libx264 @ 0000012cd39bcb80] i4 v,h,dc,ddl,ddr,vr,hd,vl,hu: 25% 19% 11%  5%  9%  8% 13%  5%  5%\n[libx264 @ 0000012cd39bcb80] i8c dc,h,v,p: 52% 20% 22%  6%\n[libx264 @ 0000012cd39bcb80] Weighted P-Frames: Y:0.0% UV:0.0%\n[libx264 @ 0000012cd39bcb80] ref P L0: 81.3% 13.1%  3.8%  0.9%  0.8%  0.0%\n[libx264 @ 0000012cd39bcb80] ref B L0: 93.5%  5.0%  1.2%  0.3%\n[libx264 @ 0000012cd39bcb80] ref B L1: 98.3%  1.7%\n[libx264 @ 0000012cd39bcb80] kb/s:1704.68\n",
  "seconds": 9.587890386581421,
  "probe_out": {}
}